<svg width="72" height="76" viewBox="0 0 72 76" fill="none" xmlns="http://www.w3.org/2000/svg">
<g filter="url(#filter0_d_317_12)">
<path d="M69 38C69 56.7777 53.7777 72 35 72C16.2223 72 1 56.7777 1 38C1 19.2223 16.2223 4 35 4C53.7777 4 69 19.2223 69 38Z" fill="#A34430"/>
<path d="M68.5 38C68.5 56.5015 53.5015 71.5 35 71.5C16.4985 71.5 1.5 56.5015 1.5 38C1.5 19.4985 16.4985 4.5 35 4.5C53.5015 4.5 68.5 19.4985 68.5 38Z" stroke="#FFE9E5"/>
</g>
<path d="M46.832 60C45.392 60 43.968 59.584 42.56 58.752C41.184 57.952 39.424 56.704 37.28 55.008C35.68 53.728 34.304 52.688 33.152 51.888C32.032 51.12 30.8 50.464 29.456 49.92C28.144 49.376 26.8 49.104 25.424 49.104C24.944 49.104 24.576 49.12 24.32 49.152L31.472 15.888C29.328 16.752 27.664 18.08 26.48 19.872C25.328 21.632 24.752 23.792 24.752 26.352C24.752 27.536 24.864 28.368 25.088 28.848C25.312 29.296 25.424 29.552 25.424 29.616C23.696 29.616 22.4 29.264 21.536 28.56C20.704 27.824 20.288 26.624 20.288 24.96C20.288 22.912 21.12 20.928 22.784 19.008C24.48 17.056 26.64 15.488 29.264 14.304C31.888 13.088 34.512 12.48 37.136 12.48C37.584 12.48 38.224 12.512 39.056 12.576L31.664 47.04C32.56 47.264 33.472 47.584 34.4 48C35.36 48.448 36.512 49.04 37.856 49.776C39.936 50.896 41.712 51.744 43.184 52.32C44.656 52.928 46.192 53.232 47.792 53.232C49.232 53.232 50.576 52.976 51.824 52.464C51.568 54.8 50.992 56.64 50.096 57.984C49.232 59.328 48.144 60 46.832 60Z" fill="#FFE9E5"/>
<path d="M42.56 58.752L43.5775 57.0301L43.5714 57.0265L43.5652 57.023L42.56 58.752ZM37.28 55.008L36.0306 56.5698L36.0392 56.5766L37.28 55.008ZM33.152 51.888L34.2928 50.2452L34.2831 50.2385L33.152 51.888ZM29.456 49.92L28.69 51.7675L28.6978 51.7707L28.7056 51.7739L29.456 49.92ZM24.32 49.152L22.3647 48.7316L21.7725 51.486L24.5681 51.1366L24.32 49.152ZM31.472 15.888L33.4273 16.3084L34.2194 12.6246L30.7244 14.033L31.472 15.888ZM26.48 19.872L24.8113 18.7695L24.8066 18.7767L26.48 19.872ZM25.088 28.848L23.2756 29.6938L23.2871 29.7183L23.2991 29.7424L25.088 28.848ZM25.424 29.616V31.616H27.424V29.616H25.424ZM21.536 28.56L20.2109 30.058L20.2412 30.0849L20.2727 30.1105L21.536 28.56ZM22.784 19.008L21.2743 17.6963L21.2726 17.6981L22.784 19.008ZM29.264 14.304L30.0866 16.127L30.0958 16.1229L30.1049 16.1186L29.264 14.304ZM39.056 12.576L41.0115 12.9954L41.4915 10.7574L39.2094 10.5819L39.056 12.576ZM31.664 47.04L29.7085 46.6206L29.3029 48.5113L31.1789 48.9803L31.664 47.04ZM34.4 48L35.2458 46.1876L35.232 46.1812L35.2181 46.175L34.4 48ZM37.856 49.776L36.8954 51.5302L36.9016 51.5336L36.9078 51.5369L37.856 49.776ZM43.184 52.32L43.9475 50.4715L43.9302 50.4643L43.9128 50.4575L43.184 52.32ZM51.824 52.464L53.8121 52.6819L54.1788 49.3362L51.0649 50.6137L51.824 52.464ZM50.096 57.984L48.4319 56.8746L48.4227 56.8885L48.4136 56.9025L50.096 57.984ZM46.832 58C45.7964 58 44.72 57.7053 43.5775 57.0301L41.5425 60.4739C43.216 61.4627 44.9876 62 46.832 62V58ZM43.5652 57.023C42.3093 56.2928 40.635 55.1118 38.5208 53.4394L36.0392 56.5766C38.213 58.2962 40.0587 59.6112 41.5548 60.481L43.5652 57.023ZM38.5294 53.4463C36.9086 52.1496 35.4945 51.0798 34.2928 50.2453L32.0112 53.5307C33.1135 54.2962 34.4514 55.3064 36.0306 56.5697L38.5294 53.4463ZM34.2831 50.2385C33.0362 49.3835 31.6753 48.6607 30.2064 48.0661L28.7056 51.7739C29.9247 52.2673 31.0278 52.8565 32.0209 53.5375L34.2831 50.2385ZM30.222 48.0725C28.6752 47.4311 27.0714 47.104 25.424 47.104V51.104C26.5286 51.104 27.6128 51.3209 28.69 51.7675L30.222 48.0725ZM25.424 47.104C24.9186 47.104 24.4524 47.1199 24.0719 47.1674L24.5681 51.1366C24.6996 51.1201 24.9694 51.104 25.424 51.104V47.104ZM26.2753 49.5724L33.4273 16.3084L29.5167 15.4676L22.3647 48.7316L26.2753 49.5724ZM30.7244 14.033C28.2344 15.0364 26.2362 16.6129 24.8113 18.7695L28.1487 20.9745C29.0918 19.5471 30.4216 18.4676 32.2196 17.743L30.7244 14.033ZM24.8066 18.7767C23.3992 20.9268 22.752 23.4881 22.752 26.352H26.752C26.752 24.0959 27.2568 22.3371 28.1534 20.9673L24.8066 18.7767ZM22.752 26.352C22.752 27.5538 22.8491 28.7798 23.2756 29.6938L26.9004 28.0022C26.9088 28.0203 26.861 27.9154 26.8181 27.5972C26.7777 27.2973 26.752 26.8878 26.752 26.352H22.752ZM23.2991 29.7424C23.3511 29.8464 23.3945 29.9351 23.43 30.0095C23.466 30.0847 23.4911 30.1398 23.5077 30.1776C23.5158 30.1962 23.5204 30.2073 23.5223 30.2119C23.5245 30.2175 23.5214 30.21 23.5153 30.1927C23.5105 30.179 23.4949 30.1338 23.4785 30.0681C23.47 30.0341 23.458 29.9818 23.4475 29.916C23.4422 29.8823 23.4365 29.8408 23.4321 29.7929C23.4277 29.7455 23.424 29.6855 23.424 29.616H27.424C27.424 29.2146 27.2952 28.8841 27.2907 28.8713C27.2529 28.7631 27.2094 28.6592 27.1723 28.5744C27.096 28.3998 26.9942 28.1883 26.8769 27.9536L23.2991 29.7424ZM25.424 27.616C23.9162 27.616 23.1566 27.3006 22.7993 27.0095L20.2727 30.1105C21.6434 31.2274 23.4758 31.616 25.424 31.616V27.616ZM22.8611 27.062C22.6347 26.8617 22.288 26.3387 22.288 24.96H18.288C18.288 26.9093 18.7733 28.7863 20.2109 30.058L22.8611 27.062ZM22.288 24.96C22.288 23.501 22.8679 21.9649 24.2954 20.3179L21.2726 17.6981C19.3721 19.8911 18.288 22.323 18.288 24.96H22.288ZM24.2937 20.3197C25.7798 18.6093 27.6958 17.2058 30.0866 16.127L28.4414 12.481C25.5842 13.7702 23.1802 15.5026 21.2743 17.6963L24.2937 20.3197ZM30.1049 16.1186C32.4926 15.0121 34.831 14.48 37.136 14.48V10.48C34.193 10.48 31.2834 11.1639 28.4231 12.4894L30.1049 16.1186ZM37.136 14.48C37.5066 14.48 38.0862 14.5073 38.9026 14.5701L39.2094 10.5819C38.3618 10.5167 37.6614 10.48 37.136 10.48V14.48ZM37.1005 12.1566L29.7085 46.6206L33.6195 47.4594L41.0115 12.9954L37.1005 12.1566ZM31.1789 48.9803C31.95 49.173 32.7506 49.4524 33.5819 49.825L35.2181 46.175C34.1934 45.7156 33.1701 45.355 32.1491 45.0997L31.1789 48.9803ZM33.5542 49.8124C34.4624 50.2362 35.574 50.8066 36.8954 51.5302L38.8166 48.0218C37.45 47.2734 36.2576 46.6598 35.2458 46.1876L33.5542 49.8124ZM36.9078 51.5369C39.0278 52.6785 40.8812 53.5666 42.4552 54.1825L43.9128 50.4575C42.5428 49.9214 40.8442 49.1135 38.8042 48.0151L36.9078 51.5369ZM42.4205 54.1685C44.1358 54.877 45.9313 55.232 47.792 55.232V51.232C46.4527 51.232 45.1762 50.979 43.9475 50.4715L42.4205 54.1685ZM47.792 55.232C49.4746 55.232 51.0783 54.9317 52.5831 54.3143L51.0649 50.6137C50.0737 51.0203 48.9894 51.232 47.792 51.232V55.232ZM49.8359 52.2461C49.6001 54.398 49.0875 55.8911 48.4319 56.8746L51.7601 59.0934C52.8965 57.3889 53.5359 55.202 53.8121 52.6819L49.8359 52.2461ZM48.4136 56.9025C47.8254 57.8176 47.3088 58 46.832 58V62C48.9792 62 50.6386 60.8384 51.7784 59.0655L48.4136 56.9025Z" fill="#A34430"/>
<defs>
<filter id="filter0_d_317_12" x="0" y="4" width="72" height="72" filterUnits="userSpaceOnUse" color-interpolation-filters="sRGB">
<feFlood flood-opacity="0" result="BackgroundImageFix"/>
<feColorMatrix in="SourceAlpha" type="matrix" values="0 0 0 0 0 0 0 0 0 0 0 0 0 0 0 0 0 0 127 0" result="hardAlpha"/>
<feOffset dx="1" dy="2"/>
<feGaussianBlur stdDeviation="1"/>
<feComposite in2="hardAlpha" operator="out"/>
<feColorMatrix type="matrix" values="0 0 0 0 0.6 0 0 0 0 0.2425 0 0 0 0 0.2425 0 0 0 0.35 0"/>
<feBlend mode="normal" in2="BackgroundImageFix" result="effect1_dropShadow_317_12"/>
<feBlend mode="normal" in="SourceGraphic" in2="effect1_dropShadow_317_12" result="shape"/>
</filter>
</defs>
</svg>
