<svg width="206" height="207" viewBox="0 0 206 207" fill="none" xmlns="http://www.w3.org/2000/svg">
<g filter="url(#filter0_d_302_21)">
<circle cx="100" cy="100" r="100" fill="#A34430"/>
<g filter="url(#filter1_d_302_21)">
<path d="M166 108C166 135.614 143.614 158 116 158C88.3858 158 66 135.614 66 108C66 80.3858 88.3858 58 116 58C143.614 58 166 80.3858 166 108Z" fill="url(#paint0_linear_302_21)"/>
<path d="M165 108C165 135.062 143.062 157 116 157C88.938 157 67 135.062 67 108C67 80.938 88.938 59 116 59C143.062 59 165 80.938 165 108Z" stroke="#FFE9E5" stroke-width="2"/>
</g>
<g filter="url(#filter2_d_302_21)">
<path d="M135 92C135 119.614 112.614 142 85 142C57.3858 142 35 119.614 35 92C35 64.3858 57.3858 42 85 42C112.614 42 135 64.3858 135 92Z" fill="#A34430"/>
<path d="M134.5 92C134.5 119.338 112.338 141.5 85 141.5C57.6619 141.5 35.5 119.338 35.5 92C35.5 64.6619 57.6619 42.5 85 42.5C112.338 42.5 134.5 64.6619 134.5 92Z" stroke="#FFE9E5"/>
</g>
<g filter="url(#filter3_d_302_21)">
<path d="M92.832 118C91.392 118 89.968 117.584 88.56 116.752C87.184 115.952 85.424 114.704 83.28 113.008C81.68 111.728 80.304 110.688 79.152 109.888C78.032 109.12 76.8 108.464 75.456 107.92C74.144 107.376 72.8 107.104 71.424 107.104C70.944 107.104 70.576 107.12 70.32 107.152L77.472 73.888C75.328 74.752 73.664 76.08 72.48 77.872C71.328 79.632 70.752 81.792 70.752 84.352C70.752 85.536 70.864 86.368 71.088 86.848C71.312 87.296 71.424 87.552 71.424 87.616C69.696 87.616 68.4 87.264 67.536 86.56C66.704 85.824 66.288 84.624 66.288 82.96C66.288 80.912 67.12 78.928 68.784 77.008C70.48 75.056 72.64 73.488 75.264 72.304C77.888 71.088 80.512 70.48 83.136 70.48C83.584 70.48 84.224 70.512 85.056 70.576L77.664 105.04C78.56 105.264 79.472 105.584 80.4 106C81.36 106.448 82.512 107.04 83.856 107.776C85.936 108.896 87.712 109.744 89.184 110.32C90.656 110.928 92.192 111.232 93.792 111.232C95.232 111.232 96.576 110.976 97.824 110.464C97.568 112.8 96.992 114.64 96.096 115.984C95.232 117.328 94.144 118 92.832 118Z" fill="#FFE9E5"/>
</g>
</g>
<defs>
<filter id="filter0_d_302_21" x="0" y="0" width="206" height="207" filterUnits="userSpaceOnUse" color-interpolation-filters="sRGB">
<feFlood flood-opacity="0" result="BackgroundImageFix"/>
<feColorMatrix in="SourceAlpha" type="matrix" values="0 0 0 0 0 0 0 0 0 0 0 0 0 0 0 0 0 0 127 0" result="hardAlpha"/>
<feOffset dx="3" dy="4"/>
<feGaussianBlur stdDeviation="1.5"/>
<feComposite in2="hardAlpha" operator="out"/>
<feColorMatrix type="matrix" values="0 0 0 0 0.4375 0 0 0 0 0.171354 0 0 0 0 0.171354 0 0 0 0.16 0"/>
<feBlend mode="normal" in2="BackgroundImageFix" result="effect1_dropShadow_302_21"/>
<feBlend mode="normal" in="SourceGraphic" in2="effect1_dropShadow_302_21" result="shape"/>
</filter>
<filter id="filter1_d_302_21" x="64" y="58" width="108" height="108" filterUnits="userSpaceOnUse" color-interpolation-filters="sRGB">
<feFlood flood-opacity="0" result="BackgroundImageFix"/>
<feColorMatrix in="SourceAlpha" type="matrix" values="0 0 0 0 0 0 0 0 0 0 0 0 0 0 0 0 0 0 127 0" result="hardAlpha"/>
<feOffset dx="2" dy="4"/>
<feGaussianBlur stdDeviation="2"/>
<feComposite in2="hardAlpha" operator="out"/>
<feColorMatrix type="matrix" values="0 0 0 0 0.6 0 0 0 0 0.243137 0 0 0 0 0.243137 0 0 0 0.45 0"/>
<feBlend mode="normal" in2="BackgroundImageFix" result="effect1_dropShadow_302_21"/>
<feBlend mode="normal" in="SourceGraphic" in2="effect1_dropShadow_302_21" result="shape"/>
</filter>
<filter id="filter2_d_302_21" x="34" y="42" width="104" height="104" filterUnits="userSpaceOnUse" color-interpolation-filters="sRGB">
<feFlood flood-opacity="0" result="BackgroundImageFix"/>
<feColorMatrix in="SourceAlpha" type="matrix" values="0 0 0 0 0 0 0 0 0 0 0 0 0 0 0 0 0 0 127 0" result="hardAlpha"/>
<feOffset dx="1" dy="2"/>
<feGaussianBlur stdDeviation="1"/>
<feComposite in2="hardAlpha" operator="out"/>
<feColorMatrix type="matrix" values="0 0 0 0 0.6 0 0 0 0 0.2425 0 0 0 0 0.2425 0 0 0 0.35 0"/>
<feBlend mode="normal" in2="BackgroundImageFix" result="effect1_dropShadow_302_21"/>
<feBlend mode="normal" in="SourceGraphic" in2="effect1_dropShadow_302_21" result="shape"/>
</filter>
<filter id="filter3_d_302_21" x="62.288" y="70.48" width="39.5359" height="55.52" filterUnits="userSpaceOnUse" color-interpolation-filters="sRGB">
<feFlood flood-opacity="0" result="BackgroundImageFix"/>
<feColorMatrix in="SourceAlpha" type="matrix" values="0 0 0 0 0 0 0 0 0 0 0 0 0 0 0 0 0 0 127 0" result="hardAlpha"/>
<feOffset dy="4"/>
<feGaussianBlur stdDeviation="2"/>
<feComposite in2="hardAlpha" operator="out"/>
<feColorMatrix type="matrix" values="0 0 0 0 0.6 0 0 0 0 0.243137 0 0 0 0 0.243137 0 0 0 0.25 0"/>
<feBlend mode="normal" in2="BackgroundImageFix" result="effect1_dropShadow_302_21"/>
<feBlend mode="normal" in="SourceGraphic" in2="effect1_dropShadow_302_21" result="shape"/>
</filter>
<linearGradient id="paint0_linear_302_21" x1="116" y1="58" x2="116" y2="158" gradientUnits="userSpaceOnUse">
<stop stop-color="#FFDED1"/>
<stop offset="1" stop-color="#FFBFAA"/>
</linearGradient>
</defs>
</svg>
